<?xml version="1.0" encoding="UTF-8"?>
<svg id="solid_re_logo" data-name="solid re logo" xmlns="http://www.w3.org/2000/svg" viewBox="0 0 424 332">
  <defs>
    <style>
      .cls-1 {
        fill: #f3a14e;
      }

      .cls-2 {
        letter-spacing: -.03em;
      }

      .cls-3 {
        letter-spacing: -.02em;
      }

      .cls-4 {
        fill: none;
        font-family: DMSerifDisplay-Regular, 'DM Serif Display';
        font-size: 327.89px;
        stroke: #000;
        stroke-dasharray: 0 0 5 7;
        stroke-miterlimit: 10;
        stroke-width: 3px;
      }
    </style>
  </defs>
  <text class="cls-4" transform="translate(20.98 265.26)"><tspan class="cls-2" x="0" y="0">r</tspan><tspan class="cls-3" x="133.78" y="0">e</tspan></text>
  <g id="script_re" data-name="script re">
    <g>
      <path class="cls-1" d="M46.71,272.33c2.77-8.1,5.83-16.1,9.15-23.99l-.91,2.15c5.13-12.14,10.89-24.01,17.23-35.57,6.4-11.65,13.4-22.98,20.93-33.93,4.3-6.25,8.77-12.37,13.4-18.37l-1.41,1.82c8.62-11.15,17.8-21.87,27.5-32.11s20.01-20.1,30.72-29.39c6.14-5.32,12.42-10.46,18.85-15.43l-1.82,1.41c14.66-11.32,30.01-22.07,46.19-31.12,4.83-2.7,9.78-5.19,14.88-7.35l-2.15,.91c7.17-3,14.61-5.3,22.3-6.51,2.08-.33,4.36-2.4,5.38-4.14,1.13-1.93,1.61-4.77,.91-6.94s-2.05-4.28-4.14-5.38c-2.27-1.2-4.41-1.31-6.94-.91-12.47,1.97-24.37,6.81-35.49,12.68-10.07,5.31-19.67,11.54-29.06,17.96-18.6,12.7-36.32,26.79-52.82,42.12-15.75,14.63-30.4,30.44-43.76,47.28-13.55,17.09-25.91,35.09-36.65,54.08s-19.69,38.46-27.1,58.72c-.88,2.4-1.73,4.8-2.55,7.22-1.53,4.46,1.75,10.04,6.29,11.07,5,1.14,9.44-1.51,11.07-6.29h0Z"/>
      <path class="cls-1" d="M31.57,128.35c8.69-6.59,17.01-13.61,24.77-21.27,7.66-7.57,14.67-15.7,21.24-24.23,3.47-4.5,6.76-9.14,9.86-13.9l-14.14,1.82c.42,.48,.83,.98,1.23,1.48l-1.41-1.82c1.5,1.96,2.74,4.08,3.7,6.35l-.91-2.15c1.06,2.57,1.74,5.24,2.13,7.99l-.32-2.39c.57,4.33,.41,8.69-.15,13.01l.32-2.39c-1.4,10.33-4.97,20.2-8.17,30.07-3.82,11.79-7.65,23.58-11.47,35.37-7.67,23.66-15.35,47.32-23.02,70.98-4.31,13.29-8.62,26.59-12.94,39.88-1.45,4.48,1.69,10.02,6.29,11.07,4.94,1.12,9.51-1.49,11.07-6.29,9.45-29.12,18.89-58.24,28.34-87.36,4.67-14.4,9.34-28.8,14.01-43.2,2.36-7.28,4.72-14.56,7.08-21.84,1.91-5.88,3.82-11.77,5.11-17.82,1.47-6.88,2.44-14.1,1.59-21.12-.56-4.6-1.57-8.64-3.41-12.89-1.55-3.58-3.77-6.73-6.34-9.66-1.86-2.12-4.89-2.83-7.56-2.48-2.86,.38-5,1.88-6.57,4.3-3.18,4.88-6.56,9.63-10.12,14.24l1.41-1.82c-9.15,11.8-19.47,22.66-30.76,32.42-3.26,2.82-6.6,5.55-10.01,8.18l1.82-1.41c-.58,.45-1.16,.89-1.75,1.34-1.95,1.48-3.46,2.92-4.14,5.38-.59,2.15-.33,5.02,.91,6.94s3.08,3.61,5.38,4.14,5.05,.52,6.94-.91h0Z"/>
    </g>
    <path class="cls-1" d="M165.78,199.28c25.8-5.81,51.62-12.11,75.7-23.32,11.96-5.57,23.17-12.53,33.27-21.04,10.68-8.99,20.52-20.09,24.75-33.64,2.19-7.03,2.56-15.14-.21-22.06-2.61-6.5-6.93-12.04-13.1-15.53-10.71-6.06-23.98-5.43-35.52-2.41s-22.57,9.25-32.61,16c-10.85,7.29-21.05,15.68-30.03,25.19-17.65,18.67-31.37,41.95-36.27,67.37-4.73,24.5-1.16,50.08,9.9,72.43,5.19,10.49,12.33,20.29,20.94,28.24,4.54,4.19,9.53,8,14.84,11.17s11.22,5.77,17.11,7.91c23.38,8.48,49.45,8.62,73.59,3.58,24.18-5.04,47.57-16.01,66-32.58,10.31-9.27,19.29-20.25,26.4-32.14,4.38-7.32,8.12-15.14,10.84-23.23,.35-1.04,.7-2.09,.96-3.15,1.14-4.56-1.47-9.97-6.29-11.07s-9.84,1.4-11.07,6.29c-.82,3.25-2.09,6.42-3.38,9.5l.91-2.15c-4.17,9.84-9.73,19.07-16.25,27.53l1.41-1.82c-6.59,8.49-14.16,16.28-22.66,22.86l1.82-1.41c-8.79,6.76-18.5,12.25-28.71,16.56l2.15-.91c-11.96,5.02-24.56,8.44-37.42,10.17l2.39-.32c-11.75,1.55-23.68,1.7-35.43,.15l2.39,.32c-9.4-1.27-18.63-3.63-27.39-7.29l2.15,.91c-6.44-2.72-12.49-6.15-18.03-10.42l1.82,1.41c-5.64-4.37-10.66-9.46-15.03-15.09l1.41,1.82c-5.1-6.61-9.26-13.88-12.51-21.56l.91,2.15c-3.57-8.54-6-17.53-7.25-26.7l.32,2.39c-1.23-9.19-1.28-18.51-.06-27.7l-.32,2.39c1.33-9.73,4.09-19.24,7.9-28.28l-.91,2.15c4.46-10.51,10.37-20.33,17.34-29.36l-1.41,1.82c8.25-10.62,17.91-20.07,28.54-28.3l-1.82,1.41c4.83-3.72,9.85-7.2,15.05-10.4,4.82-2.97,9.77-5.84,14.99-8.06l-2.15,.91c5.48-2.31,11.24-3.99,17.14-4.79l-2.39,.32c3.84-.5,7.73-.61,11.57-.1l-2.39-.32c2.51,.35,4.96,.97,7.3,1.96l-2.15-.91c1.73,.75,3.35,1.69,4.85,2.83l-1.82-1.41c1.36,1.07,2.56,2.29,3.62,3.65l-1.41-1.82c1.12,1.48,2.04,3.08,2.77,4.79l-.91-2.15c.71,1.74,1.18,3.53,1.45,5.38l-.32-2.39c.28,2.23,.24,4.45-.05,6.67l.32-2.39c-.44,3.07-1.34,6.03-2.54,8.89l.91-2.15c-1.8,4.19-4.2,8.07-6.97,11.67l1.41-1.82c-5.13,6.58-11.39,12.34-17.97,17.44l1.82-1.41c-10.37,7.99-21.93,14.25-33.96,19.34l2.15-.91c-16.84,7.08-34.52,11.92-52.26,16.15-4.96,1.18-9.93,2.31-14.9,3.43-4.6,1.04-7.73,6.6-6.29,11.07,1.56,4.82,6.14,7.4,11.07,6.29h0Z"/>
  </g>
</svg>