<?xml version="1.0" encoding="UTF-8"?>
<svg id="Horizontal_Layout_-_Hover" data-name="Horizontal Layout - Hover" xmlns="http://www.w3.org/2000/svg" viewBox="0 0 960 332">
  <defs>
    <style>
      .cls-1 {
        letter-spacing: 0em;
      }

      .cls-2 {
        fill: #f3a14e;
      }

      .cls-3 {
        fill: none;
        font-size: 327.89px;
        stroke: #000;
        stroke-miterlimit: 10;
        stroke-width: 2px;
      }

      .cls-3, .cls-4 {
        font-family: DMSerifDisplay-Regular, 'DM Serif Display';
      }

      .cls-5 {
        opacity: .85;
      }

      .cls-6 {
        letter-spacing: -.03em;
      }

      .cls-4 {
        font-size: 342.54px;
      }

      .cls-7 {
        letter-spacing: -.02em;
      }
    </style>
  </defs>
  <g id="teer_solid_" data-name="teer (solid)">
    <text class="cls-4" transform="translate(321.6 259.91)"><tspan class="cls-1" x="0" y="0">t</tspan><tspan x="122.63" y="0">eer</tspan></text>
  </g>
  <g id="re_dotted_" data-name="re (dotted)">
    <text class="cls-3" transform="translate(22.89 260.01)"><tspan class="cls-6" x="0" y="0">r</tspan><tspan class="cls-7" x="133.78" y="0">e</tspan></text>
  </g>
  <g class="cls-5">
    <g id="e_script" data-name="e script">
      <path class="cls-2" d="M164.39,209.6c25.2-5.68,50.83-11.86,73.63-24.44,11.25-6.2,21.98-14.18,30.38-23.96,9.93-11.58,17.41-28.5,8.92-43.03-6.42-10.98-19.44-14.94-31.53-13.58-6.02,.68-11.81,2.02-17.42,4.32s-11.4,5.44-16.77,8.83c-21.64,13.66-40.75,32.79-51.89,56.03-5.7,11.88-9.4,24.42-10.48,37.58-.97,11.82,.42,24.04,3.8,35.4,6.82,22.89,22.36,44.03,44.57,53.88,13.33,5.91,27.77,8.36,42.32,7.32,14.26-1.02,28.16-4.62,41.45-9.8,26.71-10.42,51.29-25.88,75.02-41.8s46.78-33.41,68.62-52.06,41.89-37.96,61.07-58.7c4.68-5.06,9.29-10.19,13.82-15.38,3.09-3.54,3.75-9.29,0-12.73-3.39-3.11-9.42-3.79-12.73,0-17.95,20.55-37.05,40.08-57.21,58.47-10.04,9.16-20.34,18.04-30.89,26.62-2.64,2.14-5.29,4.27-7.95,6.38-1.29,1.02-2.59,2.04-3.89,3.06-.69,.54-1.38,1.07-2.07,1.61,.16-.12,1.66-1.28,.44-.34-.46,.35-.92,.71-1.39,1.06-5.4,4.13-10.85,8.19-16.36,12.17-11.02,7.96-22.26,15.6-33.72,22.92-11.35,7.26-22.87,14.35-34.77,20.69-5.97,3.18-12.04,6.15-18.25,8.83-.03,.01-1,.34-1.07,.46,.25-.45,1.69-.7,.55-.23-.8,.33-1.61,.66-2.41,.98-1.61,.64-3.23,1.27-4.85,1.87-3.14,1.16-6.31,2.23-9.52,3.19s-6.54,1.85-9.86,2.59c-3.07,.69-6.28,.96-9.33,1.71,2.71-.66,.17-.03-.62,.06-.73,.08-1.46,.16-2.19,.22-1.73,.16-3.46,.27-5.19,.33-3.07,.11-6.15,.08-9.22-.13-1.61-.11-3.23-.41-4.84-.47,.14,0,2.31,.35,.79,.1-.36-.06-.71-.11-1.07-.17-.89-.15-1.78-.31-2.66-.49-3.02-.61-6.01-1.4-8.93-2.39-1.52-.51-3.09-1.39-4.65-1.75,.17,.04,2,.89,.62,.25-.34-.16-.68-.31-1.02-.46-.76-.35-1.51-.71-2.25-1.09-2.37-1.21-4.67-2.56-6.88-4.05-.5-.34-1-.68-1.49-1.03-.33-.23-1.22-1.16-1.64-1.21,.05,0,1.84,1.46,.75,.57-.23-.19-.47-.38-.71-.57-.58-.48-1.16-.96-1.73-1.46-1.99-1.73-3.88-3.58-5.66-5.52-.87-.94-1.71-1.91-2.53-2.9-.39-.47-.76-.94-1.14-1.41-.89-1.1,.57,.7,.57,.75,0-.17-.71-.95-.81-1.09-1.57-2.14-3.03-4.37-4.37-6.66s-2.6-4.67-3.73-7.09c-.26-.56-.51-1.11-.76-1.67-.12-.28-.74-1.73-.09-.19,.58,1.38,.15,.36,.01,.01-.52-1.28-1.01-2.58-1.47-3.88-1.82-5.17-3.16-10.51-4.02-15.92-.1-.6-.13-1.25-.27-1.84,.01,.04,.31,2.46,.14,1.01-.04-.31-.07-.61-.11-.92-.15-1.38-.28-2.77-.37-4.16-.18-2.78-.23-5.56-.15-8.34,.08-2.62,.27-5.24,.58-7.84s-.28,1.86,.02-.12c.1-.68,.22-1.37,.34-2.05,.25-1.41,.54-2.81,.85-4.2,.63-2.78,1.4-5.54,2.27-8.26,.46-1.43,.96-2.86,1.49-4.27,.23-.63,.47-1.25,.72-1.87,.29-.73,1.54-3.2,.24-.63,1.32-2.61,2.42-5.32,3.8-7.9s2.86-5.12,4.43-7.59,3.25-4.9,5.01-7.25c.2-.27,.41-.54,.61-.81,.73-.98-1.44,1.83-.33,.42,.42-.53,.84-1.06,1.26-1.58,.96-1.18,1.93-2.35,2.93-3.49,3.89-4.48,8.1-8.69,12.54-12.61,1.08-.96,2.18-1.9,3.29-2.82,.59-.49,1.18-.97,1.78-1.45,.27-.21,.53-.43,.8-.64s1.51-1.16,.3-.24c-1.28,.96,.79-.59,1.12-.84,.55-.41,1.09-.81,1.64-1.21,1.24-.9,2.49-1.78,3.76-2.64,4.79-3.26,9.78-6.34,14.97-8.93,.57-.29,1.15-.56,1.73-.83,.31-.14,2.35-1.02,.71-.33s.55-.21,.95-.36c.69-.26,1.38-.51,2.07-.75,2.37-.81,4.79-1.47,7.25-1.96,.64-.13,1.29-.23,1.94-.35,1.93-.35-2.43,.26-.03,0,1.27-.14,2.54-.22,3.81-.24,1.1-.02,2.2,.01,3.3,.1,.27,.02,.54,.05,.81,.07,1.59,.13-2.13-.35-1-.14,.58,.11,1.17,.2,1.74,.33,1.13,.25,2.22,.61,3.32,1,1.32,.47-2.27-1.07-.42-.15,.56,.28,1.1,.58,1.63,.92,.42,.27,.82,.57,1.23,.85-2.41-1.6-1.01-.79-.38-.2,.42,.39,.8,.82,1.19,1.24,.26,.28,.85,1.06-.09-.16-1.05-1.36-.1-.11,.1,.21,.3,.45,.58,.92,.84,1.4,.16,.3,.32,.89,.56,1.11-.13-.12-.74-2.11-.33-.73,.19,.64,.41,1.27,.57,1.92,.08,.32,.13,.65,.2,.97,.4,1.75-.1-2.21-.07-.42,.02,1.3-.17,2.7-.09,3.99-.13-2.12,.23-1.56,.06-.64-.06,.34-.13,.67-.21,1-.19,.84-.42,1.68-.68,2.5-.21,.65-.75,1.57-.8,2.23,.01-.15,.93-2.04,.28-.68-.15,.32-.3,.65-.45,.97-.71,1.46-1.5,2.87-2.37,4.24-.39,.61-.78,1.21-1.2,1.8-.24,.34-1.81,2.5-.89,1.26s-.61,.72-.8,.95c-.56,.66-1.14,1.31-1.73,1.95-2.03,2.21-4.16,4.32-6.39,6.32-1.08,.97-2.17,1.91-3.29,2.83-.59,.49-1.19,.96-1.79,1.44-.46,.37-1.32,.79,.61-.47-.35,.23-.68,.51-1.02,.76-4.78,3.55-9.85,6.69-15.1,9.49-2.65,1.41-5.35,2.73-8.08,3.97-.71,.32-1.41,.64-2.12,.95-.28,.12-2.58,1.11-1.07,.47s-.93,.38-1.32,.54c-.8,.32-1.61,.64-2.42,.96-11.44,4.44-23.28,7.78-35.18,10.72-5.76,1.42-11.55,2.75-17.34,4.05-4.6,1.04-7.73,6.6-6.29,11.07,1.56,4.82,6.15,7.4,11.07,6.29h0Z"/>
    </g>
    <g id="r_script" data-name="r script">
      <path class="cls-2" d="M57.34,266.07c3.12-10.12,6.74-20.09,10.85-29.85l-.91,2.15c8.5-20.13,19.03-39.39,31.37-57.42,3.52-5.14,7.18-10.17,10.99-15.1l-1.41,1.82c13.12-16.98,27.89-32.68,44.08-46.75,4.6-4,9.31-7.86,14.13-11.58l-1.82,1.41c10.37-8,21.21-16.01,33.33-21.17l-2.15,.91c4.26-1.78,8.65-3.16,13.2-3.96,2.1-.37,4.34-2.36,5.38-4.14,1.13-1.93,1.61-4.77,.91-6.94s-2.05-4.28-4.14-5.38c-2.25-1.19-4.43-1.35-6.94-.91-9.34,1.65-18.24,5.69-26.36,10.5-7.34,4.35-14.28,9.39-21.05,14.57-13.46,10.29-26.19,21.45-37.95,33.65-11.74,12.19-22.52,25.31-32.33,39.09-9.45,13.27-17.91,27.24-25.27,41.77-7.65,15.09-14.19,30.78-19.47,46.86-.62,1.89-1.22,3.78-1.8,5.68-1.39,4.5,1.64,10.01,6.29,11.07,4.88,1.11,9.59-1.47,11.07-6.29h0Z"/>
      <path class="cls-2" d="M47.16,151.32c12.18-10.3,22.85-22.28,31.93-35.39,2.5-3.61,4.85-7.31,7.07-11.09l-14.14,1.82,.24,.3-1.41-1.82c1.2,1.59,2.19,3.29,2.97,5.12l-.91-2.15c.88,2.16,1.45,4.4,1.79,6.71l-.32-2.39c.52,3.93,.34,7.9-.18,11.82l.32-2.39c-1.14,8.17-3.72,16.06-6.02,23.96-2.7,9.28-5.41,18.55-8.11,27.83-5.43,18.63-10.86,37.26-16.29,55.9-3.05,10.48-6.11,20.95-9.16,31.43-1.32,4.52,1.6,10,6.29,11.07s9.66-1.45,11.07-6.29c6.71-23.03,13.42-46.06,20.14-69.09,3.36-11.52,6.71-23.03,10.07-34.55,1.68-5.76,3.36-11.52,5.03-17.27,1.38-4.73,2.76-9.46,3.7-14.31,1.09-5.66,1.9-11.6,1.24-17.37-.36-3.18-.82-6.34-2-9.33-.68-1.74-1.4-3.5-2.32-5.13s-2.19-3.23-3.4-4.77c-1.71-2.18-5.01-2.82-7.56-2.48-2.76,.37-5.14,1.85-6.57,4.3-3.71,6.33-7.82,12.41-12.29,18.23l1.41-1.82c-7.48,9.67-15.96,18.54-25.3,26.43-1.67,1.41-2.64,4.25-2.64,6.36s.98,4.84,2.64,6.36,3.97,2.74,6.36,2.64,4.45-1.02,6.36-2.64h0Z"/>
    </g>
  </g>
</svg>